<?xml version="1.0" standalone="no"?>
<!DOCTYPE svg PUBLIC "-//W3C//DTD SVG 20010904//EN"
 "http://www.w3.org/TR/2001/REC-SVG-20010904/DTD/svg10.dtd">
<svg version="1.0" xmlns="http://www.w3.org/2000/svg"
 width="3047.000000pt" height="883.000000pt" viewBox="0 0 3047.000000 883.000000"
 preserveAspectRatio="xMidYMid meet">

<g transform="translate(0.000000,883.000000) scale(0.100000,-0.100000)"
 stroke="none">
<g fill="#2c2c2c">
<path d="M3514 8820 c-288 -24 -539 -95 -794 -226 -146 -76 -268 -160 -417
-290 -129 -113 -221 -176 -406 -278 -181 -100 -292 -176 -435 -296 -132 -110
-320 -298 -414 -411 -315 -383 -552 -876 -638 -1330 -26 -136 -34 -159 -56
-159 -62 0 -229 -141 -289 -243 l-28 -48 -9 -392 c-12 -537 2 -685 75 -810 71
-120 204 -176 460 -193 100 -6 107 -8 107 -28 0 -42 60 -148 113 -200 183
-178 562 -246 773 -138 53 27 110 91 124 139 8 27 10 351 8 1120 l-3 1082 -34
35 c-71 74 -192 101 -405 93 -224 -8 -348 -48 -432 -138 -28 -30 -72 -76 -98
-104 l-48 -50 6 65 c41 486 691 1440 1133 1664 79 40 84 36 47 -41 -69 -141
-100 -274 -115 -498 -13 -188 -6 -434 16 -558 35 -199 122 -404 258 -611 41
-61 145 -203 232 -316 260 -338 332 -445 424 -628 66 -131 116 -268 151 -415
74 -306 79 -505 15 -644 -20 -45 -28 -53 -51 -53 l-26 0 4 -71 c7 -120 -88
-109 907 -109 849 0 857 0 879 20 17 16 22 32 22 75 0 69 -5 80 -47 106 -19
12 -42 37 -49 55 -25 59 -17 211 21 442 94 573 120 627 598 1294 222 311 291
416 360 554 190 378 217 841 73 1249 -27 77 -47 175 -36 175 21 0 189 -127
324 -245 380 -331 794 -1027 852 -1430 l7 -50 -79 80 c-150 151 -225 175 -558
175 -263 0 -291 -7 -340 -81 -58 -87 -57 -62 -54 -1195 l3 -1039 24 -48 c46
-94 138 -138 306 -145 125 -5 243 12 376 54 173 54 255 134 299 289 l17 60
149 7 c195 9 276 38 357 127 127 140 154 330 133 926 -11 324 -14 364 -32 405
-24 52 -70 96 -171 163 -122 81 -158 142 -194 332 -31 157 -46 210 -106 360
-219 552 -522 951 -1012 1333 -143 112 -300 215 -456 302 -145 80 -201 120
-308 217 -355 323 -789 497 -1287 516 -69 3 -170 1 -226 -3z m436 -244 c266
-44 519 -148 740 -304 130 -91 310 -273 389 -391 162 -244 256 -526 281 -843
21 -257 -24 -447 -170 -725 -77 -147 -173 -292 -379 -576 -257 -352 -373 -550
-454 -767 -86 -232 -137 -577 -137 -927 l0 -83 -100 0 -100 0 0 678 0 679 57
13 c108 24 148 104 83 169 -17 17 -45 32 -63 35 -78 12 -678 24 -760 15 -92
-9 -117 -18 -154 -52 -18 -16 -23 -31 -23 -74 0 -69 19 -88 94 -97 l56 -7 0
-680 0 -679 -79 0 -79 0 -16 68 c-20 90 -42 277 -55 477 -7 112 -18 188 -36
253 -66 247 -271 604 -578 1010 -267 353 -353 497 -422 706 -60 181 -70 248
-69 476 0 226 15 324 75 505 204 611 775 1058 1450 1134 107 12 338 6 449 -13z
m-2569 -2556 l79 0 0 -1015 0 -1015 -173 0 c-241 0 -307 23 -359 124 -19 37
-22 65 -30 326 -5 157 -7 501 -5 765 5 594 15 672 94 747 15 15 46 35 68 44
43 18 172 34 219 28 16 -2 64 -4 107 -4z m4904 -21 c57 -20 111 -77 129 -140
35 -117 39 -247 26 -994 -13 -798 -9 -757 -81 -819 -57 -48 -96 -56 -278 -56
l-161 0 0 1016 0 1016 163 -5 c96 -3 178 -10 202 -18z m-5655 -995 l0 -647
-84 6 c-137 11 -209 46 -249 120 -22 41 -22 49 -25 477 -3 462 -1 495 44 562
45 69 162 122 282 127 l32 1 0 -646z m6203 627 c88 -23 131 -43 170 -80 58
-53 57 -40 57 -546 0 -501 -1 -507 -53 -563 -45 -48 -151 -82 -259 -82 l-38 0
0 645 0 645 23 0 c13 0 58 -9 100 -19z m-3069 -317 c14 -6 16 -66 15 -588 -1
-319 -4 -621 -8 -671 l-6 -90 -91 -3 -91 -3 -6 188 c-4 103 -7 410 -7 681 l0
492 89 0 c49 0 96 -3 105 -6z"/>
<path d="M4068 7898 l-3 -62 -59 -17 -59 -18 -44 31 c-23 17 -44 29 -46 27 -2
-2 -18 -23 -35 -45 -18 -23 -32 -44 -32 -47 0 -3 20 -20 45 -38 25 -18 45 -37
45 -43 0 -6 -11 -34 -24 -62 -22 -48 -27 -52 -68 -59 -23 -4 -46 -9 -49 -11
-4 -2 1 -29 10 -59 l16 -56 40 7 c80 15 87 12 118 -38 l30 -48 -21 -47 -21
-48 37 -16 c80 -35 79 -35 107 20 27 55 29 55 109 45 44 -6 49 -10 69 -50 11
-24 25 -44 29 -44 5 0 31 11 58 25 l50 25 -27 55 -27 56 44 39 c47 41 62 45
122 31 l36 -9 10 57 c11 64 9 67 -56 77 -51 8 -62 24 -62 91 0 44 4 50 40 77
l39 29 -37 43 c-20 24 -40 44 -44 44 -4 0 -29 -15 -55 -34 l-48 -33 -52 34
c-52 33 -53 34 -53 83 l0 50 -65 0 -64 0 -3 -62z m125 -182 c54 -23 80 -59 85
-119 4 -46 1 -57 -23 -85 -35 -42 -74 -62 -120 -62 -111 0 -182 122 -123 210
42 62 114 85 181 56z"/>
<path d="M3103 7883 l-73 -4 0 -84 0 -84 -37 -10 c-21 -6 -60 -17 -87 -25
l-49 -15 -62 44 -61 44 -52 -69 -51 -69 69 -51 69 -51 -21 -52 c-11 -29 -26
-64 -32 -80 -11 -28 -38 -40 -118 -53 -21 -4 -38 -12 -38 -18 0 -13 38 -134
45 -146 3 -4 42 0 87 10 63 14 84 16 90 7 40 -59 78 -127 78 -138 0 -8 -12
-38 -25 -68 -14 -30 -22 -58 -18 -62 9 -8 132 -59 144 -59 4 0 25 32 46 71
l38 71 63 -6 c115 -12 114 -12 151 -81 l35 -64 77 40 78 41 -36 73 c-42 85
-44 78 48 156 l47 39 68 -14 c38 -8 72 -12 75 -8 6 6 29 125 29 149 0 5 -38
18 -84 27 l-84 18 -7 85 -7 86 33 26 c19 14 45 36 59 48 l25 22 -60 60 -60 60
-67 -50 -68 -51 -74 47 -75 47 -3 71 c-2 55 -6 72 -18 72 -8 1 -48 0 -87 -2z
m98 -406 c76 -50 86 -138 24 -205 -33 -36 -35 -37 -105 -37 -70 0 -72 1 -105
37 -44 47 -53 95 -29 145 26 52 75 83 134 83 32 0 58 -7 81 -23z"/>
<path d="M3966 7007 c-13 -30 -27 -64 -31 -76 -7 -23 -42 -27 -143 -15 -51 7
-53 8 -88 65 -19 33 -37 59 -40 59 -4 0 -128 -75 -143 -86 -2 -2 15 -35 39
-75 l42 -71 -63 -64 c-69 -70 -57 -66 -176 -48 l-31 5 -7 -58 c-3 -32 -8 -70
-10 -84 -4 -26 -3 -26 85 -39 l88 -13 13 -85 13 -86 -55 -49 -54 -49 64 -58
64 -59 65 57 64 56 76 -41 77 -42 9 -71 10 -72 70 6 c112 11 106 5 99 99 l-5
82 74 28 c41 15 81 27 89 27 7 0 40 -16 72 -36 32 -20 60 -34 61 -33 11 12 86
133 86 138 0 3 -32 26 -70 51 -38 25 -68 50 -66 56 3 6 14 43 26 82 l21 71 69
21 c39 12 70 25 70 30 0 16 -52 150 -59 150 -3 0 -35 -9 -71 -20 -36 -11 -72
-20 -82 -20 -16 0 -108 118 -108 139 0 6 11 38 24 71 l24 60 -70 21 c-39 11
-77 23 -84 26 -9 3 -22 -14 -38 -50z m-12 -356 c120 -79 66 -254 -79 -254
-145 0 -199 175 -79 254 19 12 47 19 79 19 32 0 60 -7 79 -19z"/>
</g>

<g fill='#2c2c2c'>
<path d="M29665 8054 c-177 -43 -337 -168 -413 -325 -55 -110 -72 -183 -72
-299 0 -117 17 -190 72 -299 155 -310 538 -429 861 -269 207 103 347 332 347
568 0 238 -144 471 -351 570 -46 21 -111 46 -144 55 -73 19 -220 18 -300 -1z
m260 -99 c198 -41 359 -194 411 -390 18 -66 17 -206 -1 -274 -71 -268 -349
-443 -615 -387 -195 41 -335 159 -407 343 -23 60 -27 82 -27 183 0 101 4 123
27 183 54 139 136 231 261 294 118 60 225 74 351 48z"/>
<path d="M29540 7425 l0 -345 55 0 55 0 0 145 0 145 51 0 c95 0 132 -34 238
-217 l42 -73 65 0 66 0 -23 38 c-72 118 -135 205 -171 236 -36 31 -39 36 -19
36 32 0 95 35 124 69 54 65 59 151 12 222 -44 67 -128 87 -372 88 l-123 1 0
-345z m355 230 c35 -17 55 -51 55 -91 0 -70 -47 -95 -192 -102 l-108 -5 0 107
0 106 106 0 c75 0 116 -5 139 -15z"/>
</g>
<g fill="#0c649c">
<path d="M13280 6926 l0 -363 -31 -7 c-17 -3 -138 -6 -268 -7 -396 0 -621 -13
-732 -42 -130 -34 -228 -76 -335 -145 -346 -224 -544 -612 -544 -1067 0 -506
232 -926 615 -1115 185 -91 359 -126 580 -117 263 11 483 100 658 265 l57 55
0 -136 0 -137 365 0 365 0 0 1590 0 1590 -365 0 -365 0 0 -364z m-180 -995
c47 -12 107 -29 133 -37 l48 -16 -3 -377 -4 -376 -26 -80 c-69 -204 -209 -340
-398 -386 -87 -22 -252 -17 -335 9 -182 56 -310 200 -366 409 -29 105 -31 316
-5 418 61 237 222 399 451 449 103 23 389 15 505 -13z"/>
<path d="M20480 5700 l0 -1590 360 0 360 0 0 410 0 410 193 0 192 0 335 -410
335 -410 428 0 428 0 -74 93 c-216 272 -784 994 -790 1004 -5 7 68 116 183
272 104 144 275 378 380 521 l190 260 -423 0 -422 -1 -275 -414 -275 -414
-202 -1 -203 0 0 930 0 930 -360 0 -360 0 0 -1590z"/>
<path d="M23643 7275 c-78 -22 -130 -51 -189 -107 -81 -76 -115 -173 -94 -271
47 -231 367 -354 617 -237 297 138 277 482 -36 601 -73 28 -224 35 -298 14z"/>
<path d="M24730 5700 l0 -1590 360 0 360 0 0 1590 0 1590 -360 0 -360 0 0
-1590z"/>
<path d="M26060 5700 l0 -1590 360 0 360 0 0 1590 0 1590 -360 0 -360 0 0
-1590z"/>
<path d="M18460 7124 c-14 -2 -68 -12 -120 -20 -307 -52 -572 -212 -713 -429
-92 -144 -130 -275 -129 -460 0 -359 161 -586 516 -724 141 -55 292 -93 576
-146 416 -76 537 -120 637 -228 57 -62 81 -140 65 -216 -15 -72 -45 -114 -114
-161 -115 -77 -258 -108 -538 -117 -271 -8 -631 22 -915 78 -55 10 -106 19
-112 19 -10 0 -13 -59 -13 -260 l0 -259 65 -20 c349 -108 1065 -155 1415 -93
463 83 748 306 856 669 35 119 44 320 20 443 -26 135 -82 239 -180 335 -168
166 -384 249 -891 344 -274 51 -385 81 -491 131 -232 108 -289 302 -131 447
150 139 407 169 977 117 150 -13 485 -57 536 -70 21 -5 21 -2 27 252 4 142 6
259 4 260 -6 6 -450 65 -632 85 -178 18 -654 34 -715 23z"/>
<path d="M8620 5595 l0 -1485 1220 0 1220 0 0 315 0 315 -845 0 -845 0 0 315
0 315 715 0 715 0 0 285 0 285 -715 0 -715 0 0 250 0 250 820 0 820 0 0 320 0
320 -1195 0 -1195 0 0 -1485z"/>
<path d="M27995 6634 c-332 -59 -585 -245 -688 -504 -34 -86 -47 -164 -47
-274 1 -237 94 -420 275 -541 138 -91 313 -147 675 -214 238 -45 348 -77 417
-125 70 -47 88 -77 88 -144 0 -86 -43 -131 -162 -171 -199 -67 -709 -51 -1116
35 -38 8 -73 14 -78 14 -5 0 -9 -103 -9 -255 l0 -255 24 -15 c34 -22 230 -70
366 -89 371 -52 740 -48 965 9 204 52 333 120 455 244 152 153 212 305 214
541 1 141 -17 227 -64 321 -32 62 -99 138 -163 186 -138 103 -323 169 -636
228 -253 49 -314 63 -402 96 -291 111 -236 338 94 390 161 26 711 -17 1005
-77 l32 -6 0 264 0 265 -227 32 c-126 17 -300 38 -387 46 -200 19 -523 18
-631 -1z"/>
<path d="M14580 5677 c0 -974 2 -997 96 -1192 76 -159 173 -258 329 -335 135
-67 213 -83 415 -84 161 -1 183 1 272 26 163 46 304 121 429 229 31 27 59 49
63 49 3 0 6 -58 6 -130 l0 -130 355 0 355 0 0 1190 0 1190 -355 0 -354 0 -3
-727 -3 -728 -23 -63 c-30 -83 -58 -127 -119 -184 -89 -83 -211 -127 -350
-128 -214 0 -348 99 -382 285 -7 39 -11 308 -11 802 l0 743 -360 0 -360 0 0
-813z"/>
 <path d="M23410 5300 l0 -1190 360 0 360 0 0 1190 0 1190 -360 0 -360 0 0
-1190z"/>
</g>

<g fill='#2c2c2c'>
<path d="M2935 3541 c-43 -11 -65 -25 -103 -64 -33 -34 -33 -35 -21 -76 16
-55 48 -87 98 -101 28 -7 267 -10 785 -8 737 3 745 3 773 24 31 23 50 56 59
103 6 28 2 36 -34 70 -25 24 -57 42 -85 50 -52 12 -1419 14 -1472 2z"/>
<path d="M3255 3106 c-65 -18 -95 -53 -95 -109 1 -49 13 -67 57 -91 63 -32
170 -37 538 -25 386 13 396 15 421 76 25 60 -2 117 -67 141 -14 6 -201 13
-415 16 -318 5 -398 4 -439 -8z"/>
</g>
<g fill='#5c5c5c'>
<path d="M24710 2146 c-172 -48 -277 -176 -301 -369 -27 -205 44 -383 180
-456 33 -17 125 -56 203 -86 270 -101 313 -127 353 -208 22 -46 26 -69 27
-139 1 -116 -20 -177 -86 -244 -39 -40 -64 -56 -105 -68 -106 -31 -238 -15
-309 38 -75 55 -109 132 -119 274 l-6 82 -83 0 -84 0 0 -87 c1 -311 167 -483
467 -483 166 0 268 35 362 125 104 99 146 224 138 410 -5 128 -24 192 -76 261
-44 59 -104 93 -286 164 -71 28 -154 61 -183 72 -29 11 -80 38 -113 60 -49 31
-65 48 -84 91 -70 155 -23 324 108 391 48 25 70 29 135 30 93 1 142 -15 195
-63 50 -45 76 -102 84 -186 l6 -65 83 0 84 0 0 49 c0 113 -40 227 -103 298
-42 46 -118 90 -191 109 -63 17 -235 17 -296 0z"/>
<path d="M0 1280 l0 -840 91 0 90 0 -6 743 -6 742 298 -742 298 -743 118 0
117 0 0 840 0 840 -86 0 -86 0 6 -722 7 -723 -135 330 c-74 182 -206 507 -293
722 l-158 393 -127 0 -128 0 0 -840z"/>
<path d="M3370 2010 l0 -110 90 0 90 0 0 110 0 110 -90 0 -90 0 0 -110z"/>
<path d="M6970 1280 l0 -840 283 0 c219 0 296 3 340 15 156 40 256 140 303
300 20 71 23 233 5 316 -25 118 -110 214 -217 245 l-54 15 59 30 c128 64 179
178 169 380 -8 164 -58 263 -162 324 -79 46 -148 55 -448 55 l-278 0 0 -840z
m483 690 c161 -24 220 -97 220 -275 0 -231 -87 -294 -405 -295 l-118 0 0 290
0 290 118 0 c64 0 148 -5 185 -10z m60 -734 c151 -35 216 -150 205 -360 -3
-67 -10 -95 -34 -142 -54 -109 -122 -134 -366 -134 l-168 0 0 325 0 325 153 0
c92 0 175 -6 210 -14z"/>
<path d="M9580 2010 l0 -110 90 0 90 0 0 110 0 110 -90 0 -90 0 0 -110z"/>
<path d="M10200 1280 l0 -840 85 0 85 0 0 840 0 840 -85 0 -85 0 0 -840z"/>
<path d="M11450 1843 l0 -278 -23 37 c-28 47 -76 83 -140 104 -68 23 -206 16
-263 -13 -92 -49 -172 -166 -209 -308 -26 -100 -36 -268 -25 -412 22 -285 103
-459 246 -529 145 -71 336 -21 400 106 l23 45 1 -77 0 -78 80 0 80 0 0 840 0
840 -85 0 -85 0 0 -277z m-130 -295 c78 -40 112 -115 132 -293 13 -124 4 -386
-17 -474 -32 -132 -93 -201 -190 -216 -126 -20 -212 63 -251 241 -22 101 -25
419 -5 509 30 135 75 210 146 241 48 21 134 17 185 -8z"/>
<path d="M12060 2010 l0 -110 90 0 90 0 0 110 0 110 -90 0 -90 0 0 -110z"/>
<path d="M15530 2040 l0 -80 213 -2 212 -3 3 -757 2 -758 95 0 95 0 0 760 0
760 200 0 200 0 0 80 0 80 -510 0 -510 0 0 -80z"/>
<path d="M16900 1280 l0 -840 85 0 85 0 0 440 c0 278 4 458 11 490 25 116 113
190 234 198 88 6 145 -20 174 -80 21 -44 21 -53 21 -546 l0 -502 90 0 91 0 -3
538 -3 537 -24 53 c-49 108 -148 158 -299 150 -114 -6 -176 -33 -242 -105
l-50 -55 0 281 0 281 -85 0 -85 0 0 -840z"/>
<path d="M22700 1280 l0 -840 85 0 84 0 3 468 3 467 28 57 c44 89 126 138 231
138 76 -1 129 -28 155 -82 21 -44 21 -54 21 -546 l0 -502 90 0 91 0 -4 538
c-3 604 -1 587 -77 662 -62 62 -131 84 -248 78 -114 -6 -176 -33 -242 -105
l-50 -55 0 281 0 281 -85 0 -85 0 0 -840z"/>
<path d="M25780 1280 l0 -840 85 0 85 0 0 225 0 225 70 85 70 86 155 -311 155
-310 105 0 106 0 -17 33 c-9 17 -100 191 -201 386 -101 195 -182 359 -179 365
2 6 86 114 185 240 100 126 181 230 181 232 0 2 -44 4 -97 4 l-98 0 -215 -285
-215 -285 -3 495 -2 495 -85 0 -85 0 0 -840z"/>
<path d="M26910 2010 l0 -110 85 0 85 0 0 110 0 110 -85 0 -85 0 0 -110z"/>
<path d="M27530 1280 l0 -840 85 0 85 0 0 840 0 840 -85 0 -85 0 0 -840z"/>
<path d="M28140 1280 l0 -840 85 0 85 0 0 840 0 840 -85 0 -85 0 0 -840z"/>
<path d="M2680 1865 l0 -165 -90 0 -90 0 0 -75 0 -75 90 0 89 0 3 -514 c3
-504 3 -515 24 -543 11 -15 41 -39 65 -53 38 -21 60 -25 161 -28 l118 -4 0 74
0 75 -71 7 c-39 3 -79 11 -90 16 -43 23 -44 34 -47 513 l-3 457 106 0 105 0 0
75 0 75 -105 0 -105 0 0 165 0 165 -80 0 -80 0 0 -165z"/>
<path d="M1691 1715 c-60 -17 -105 -42 -138 -77 -37 -39 -73 -132 -80 -202
l-6 -66 82 0 81 0 0 42 c0 58 34 122 78 150 31 19 50 23 117 23 141 -1 177
-36 183 -180 7 -145 -18 -173 -215 -246 -268 -99 -336 -167 -358 -360 -9 -74
9 -189 40 -248 27 -54 82 -106 134 -129 50 -21 164 -20 228 2 61 20 132 82
162 139 21 41 22 40 36 -30 15 -76 98 -121 199 -109 l56 7 0 65 0 64 -33 0
c-22 0 -41 8 -53 21 -18 20 -19 47 -24 478 -5 407 -8 461 -24 503 -23 61 -84
122 -144 143 -66 24 -250 30 -321 10z m317 -782 c-3 -167 -5 -181 -29 -233
-35 -74 -82 -117 -146 -136 -88 -26 -166 3 -203 75 -25 51 -28 182 -5 238 28
68 62 91 222 152 44 18 96 42 115 56 18 13 37 24 41 24 5 1 7 -79 5 -176z"/>
<path d="M4287 1720 c-142 -36 -244 -153 -292 -335 -28 -109 -40 -311 -27
-458 31 -342 133 -487 369 -520 189 -28 350 49 428 203 62 122 92 358 75 580
-22 282 -98 435 -255 506 -50 23 -76 28 -160 30 -55 2 -117 -1 -138 -6z m237
-170 c51 -31 82 -81 107 -175 19 -70 22 -108 23 -295 1 -242 -9 -311 -55 -408
-40 -83 -86 -115 -176 -120 -201 -13 -273 121 -273 513 0 312 41 443 155 497
56 26 167 20 219 -12z"/>
<path d="M19219 1707 c-37 -12 -83 -35 -103 -51 -85 -64 -143 -183 -172 -350
-23 -131 -15 -459 14 -567 43 -162 123 -264 240 -310 46 -18 77 -23 167 -23
96 0 118 3 172 25 101 43 165 109 210 219 45 112 57 198 57 415 0 265 -28 395
-108 512 -91 133 -301 190 -477 130z m246 -146 c120 -54 162 -205 152 -549 -5
-202 -17 -274 -57 -352 -38 -73 -104 -110 -197 -110 -181 1 -253 148 -253 515
0 304 57 471 172 504 55 16 140 12 183 -8z"/>
<path d="M28997 1720 c-100 -26 -179 -90 -221 -179 -17 -38 -21 -65 -21 -161
0 -106 2 -120 28 -172 18 -37 43 -68 70 -88 49 -37 159 -90 237 -115 201 -65
287 -171 250 -307 -25 -89 -101 -137 -218 -138 -122 0 -191 43 -218 138 -9 30
-13 67 -10 83 l6 29 -85 0 -85 0 0 -59 c0 -144 82 -278 196 -321 170 -63 402
-19 503 96 63 71 84 139 85 264 1 89 -3 113 -23 157 -43 96 -119 148 -308 212
-233 79 -283 126 -270 258 11 110 79 166 201 167 116 0 176 -47 197 -154 l12
-60 80 0 80 0 -6 70 c-11 127 -64 208 -169 255 -54 25 -78 29 -168 31 -58 2
-122 -1 -143 -6z"/>
<path d="M5645 1713 c-83 -18 -150 -63 -195 -131 l-30 -45 0 81 0 82 -80 0
-80 0 0 -630 0 -630 85 0 85 0 0 440 c0 278 4 458 11 490 16 73 64 139 124
170 40 20 64 25 126 25 84 0 111 -12 153 -69 20 -27 21 -40 24 -542 l3 -514
90 0 91 0 -4 523 c-4 506 -5 524 -26 588 -39 118 -127 170 -281 168 -42 -1
-85 -3 -96 -6z"/>
<path d="M13033 1701 c-67 -23 -118 -62 -154 -119 l-29 -46 0 82 0 82 -80 0
-80 0 0 -630 0 -630 85 0 85 0 0 448 c0 491 2 510 59 589 44 60 108 88 203 88
83 0 110 -12 152 -69 20 -27 21 -40 24 -542 l3 -514 90 0 91 0 -5 523 c-3 474
-5 527 -22 581 -25 81 -81 138 -154 160 -73 22 -202 20 -268 -3z"/>
<path d="M14159 1706 c-177 -63 -255 -226 -266 -552 -14 -405 76 -657 254
-718 55 -19 185 -21 234 -4 56 19 107 58 140 107 l31 46 -4 -120 c-6 -168 -41
-244 -133 -286 -47 -22 -147 -25 -207 -7 -45 13 -96 66 -105 109 l-5 29 -84 0
-84 0 0 -39 c0 -58 47 -139 106 -184 75 -57 163 -80 282 -75 165 8 273 70 339
195 61 113 63 144 63 853 l0 641 -82 -3 -83 -3 -5 -70 c-4 -53 -7 -64 -13 -47
-15 41 -70 94 -122 118 -40 19 -66 24 -135 23 -47 0 -101 -6 -121 -13z m214
-137 c126 -35 176 -178 176 -499 0 -237 -27 -377 -87 -443 -74 -82 -249 -75
-312 13 -60 84 -86 251 -77 495 9 256 50 374 147 423 48 24 94 28 153 11z"/>
<path d="M18463 1694 c-61 -30 -117 -88 -147 -153 l-21 -46 -3 103 -3 102 -79
0 -80 0 0 -630 0 -630 84 0 85 0 3 438 c3 428 4 438 26 494 48 119 150 185
273 176 l59 -4 0 88 0 88 -73 0 c-58 0 -83 -5 -124 -26z"/>
<path d="M21673 1699 c-185 -71 -277 -348 -245 -742 24 -295 95 -447 240 -515
48 -22 64 -24 152 -20 87 3 103 7 146 34 27 16 65 51 84 77 l35 47 3 -56 c4
-82 -15 -191 -44 -252 -38 -77 -83 -104 -185 -110 -124 -7 -206 36 -224 118
l-7 30 -85 0 -86 0 6 -45 c13 -94 79 -174 186 -224 51 -24 67 -26 181 -26 120
0 128 1 192 32 75 36 139 96 174 165 53 104 54 121 54 831 l0 657 -80 0 -79 0
-3 -72 -3 -73 -27 46 c-28 47 -79 87 -137 107 -55 19 -188 14 -248 -9z m252
-138 c122 -55 175 -240 161 -561 -9 -218 -36 -319 -103 -382 -38 -36 -77 -50
-145 -49 -141 0 -206 101 -229 355 -15 175 1 397 38 501 46 131 163 188 278
136z"/>
<path d="M3370 1070 l0 -630 90 0 90 0 0 630 0 630 -90 0 -90 0 0 -630z"/>
<path d="M8350 1160 c0 -468 2 -546 16 -587 24 -71 60 -112 123 -141 72 -34
205 -38 290 -8 61 21 133 81 161 135 l19 36 1 -77 0 -78 80 0 80 0 0 630 0
630 -85 0 -85 0 0 -445 c0 -282 -4 -463 -11 -495 -26 -121 -127 -203 -254
-204 -72 -1 -106 17 -140 75 -19 33 -20 55 -23 552 l-3 517 -84 0 -85 0 0
-540z"/>
<path d="M9580 1070 l0 -630 90 0 90 0 0 630 0 630 -90 0 -90 0 0 -630z"/>
<path d="M12067 1693 c-4 -3 -7 -287 -7 -630 l0 -623 90 0 90 0 0 630 0 630
-83 0 c-46 0 -87 -3 -90 -7z"/>
<path d="M20220 1175 c0 -332 4 -542 11 -574 17 -79 58 -134 125 -167 53 -26
69 -29 159 -29 94 0 105 2 168 33 63 31 95 62 144 138 10 16 12 5 12 -58 l1
-78 80 0 80 0 0 630 0 630 -90 0 -90 0 0 -459 c0 -511 -1 -524 -67 -600 -48
-57 -110 -84 -194 -85 -79 0 -112 17 -141 75 -16 31 -18 79 -18 552 l0 517
-90 0 -90 0 0 -525z"/>
<path d="M26910 1070 l0 -630 85 0 85 0 0 630 0 630 -85 0 -85 0 0 -630z"/>
</g>
</g>
</svg>
